<mxfile host="65bd71144e">
    <diagram id="LBUzCvqpS-yxL9a9W4-1" name="Page-1">
        <mxGraphModel dx="1210" dy="787" grid="1" gridSize="10" guides="1" tooltips="1" connect="1" arrows="1" fold="1" page="1" pageScale="1" pageWidth="850" pageHeight="1100" math="0" shadow="0">
            <root>
                <mxCell id="0"/>
                <mxCell id="1" parent="0"/>
                <mxCell id="2" value="&lt;span style=&quot;color: rgba(0, 0, 0, 0); font-family: monospace; font-size: 0px; text-align: start;&quot;&gt;%3CmxGraphModel%3E%3Croot%3E%3CmxCell%20id%3D%220%22%2F%3E%3CmxCell%20id%3D%221%22%20parent%3D%220%22%2F%3E%3CmxCell%20id%3D%222%22%20value%3D%22%22%20style%3D%22rounded%3D0%3BwhiteSpace%3Dwrap%3Bhtml%3D1%3BfillColor%3D%23B8B8B8%3B%22%20vertex%3D%221%22%20parent%3D%221%22%3E%3CmxGeometry%20x%3D%2215%22%20y%3D%2210%22%20width%3D%22120%22%20height%3D%2260%22%20as%3D%22geometry%22%2F%3E%3C%2FmxCell%3E%3C%2Froot%3E%3C%2FmxGraphModel%3E&lt;/span&gt;" style="rounded=0;whiteSpace=wrap;html=1;fillColor=#B8B8B8;" vertex="1" parent="1">
                    <mxGeometry x="15" y="10" width="120" height="60" as="geometry"/>
                </mxCell>
                <mxCell id="3" value="" style="rhombus;whiteSpace=wrap;html=1;fillColor=#8C8C8C;" vertex="1" parent="1">
                    <mxGeometry x="25" y="100" width="110" height="90" as="geometry"/>
                </mxCell>
                <mxCell id="4" style="edgeStyle=none;html=1;" edge="1" parent="1" source="5" target="10">
                    <mxGeometry relative="1" as="geometry">
                        <mxPoint x="450" y="95" as="sourcePoint"/>
                    </mxGeometry>
                </mxCell>
                <mxCell id="5" value="ENTRAR NO SITE" style="rounded=0;whiteSpace=wrap;html=1;fillColor=#B8B8B8;" vertex="1" parent="1">
                    <mxGeometry x="365" y="10" width="120" height="60" as="geometry"/>
                </mxCell>
                <mxCell id="6" style="edgeStyle=none;html=1;" edge="1" parent="1" source="10" target="20">
                    <mxGeometry relative="1" as="geometry">
                        <mxPoint x="270" y="315" as="targetPoint"/>
                        <Array as="points">
                            <mxPoint x="265" y="200"/>
                        </Array>
                    </mxGeometry>
                </mxCell>
                <mxCell id="7" value="Sim" style="edgeLabel;html=1;align=center;verticalAlign=middle;resizable=0;points=[];" vertex="1" connectable="0" parent="6">
                    <mxGeometry x="-0.3091" relative="1" as="geometry">
                        <mxPoint x="21" y="-15" as="offset"/>
                    </mxGeometry>
                </mxCell>
                <mxCell id="8" style="edgeStyle=none;html=1;" edge="1" parent="1" source="10" target="12">
                    <mxGeometry relative="1" as="geometry">
                        <Array as="points">
                            <mxPoint x="590" y="200"/>
                        </Array>
                    </mxGeometry>
                </mxCell>
                <mxCell id="9" value="NÃ£o" style="edgeLabel;html=1;align=center;verticalAlign=middle;resizable=0;points=[];" vertex="1" connectable="0" parent="8">
                    <mxGeometry x="-0.6143" y="-3" relative="1" as="geometry">
                        <mxPoint x="3" y="-18" as="offset"/>
                    </mxGeometry>
                </mxCell>
                <mxCell id="10" value="Possuo &lt;br&gt;cadastro?" style="rhombus;whiteSpace=wrap;html=1;fillColor=#8C8C8C;" vertex="1" parent="1">
                    <mxGeometry x="370" y="155" width="110" height="90" as="geometry"/>
                </mxCell>
                <mxCell id="11" style="edgeStyle=none;html=1;" edge="1" parent="1" source="12" target="22">
                    <mxGeometry relative="1" as="geometry">
                        <Array as="points">
                            <mxPoint x="590" y="505"/>
                        </Array>
                    </mxGeometry>
                </mxCell>
                <mxCell id="12" value="ACESSAR COMO VISITANTE" style="rounded=0;whiteSpace=wrap;html=1;fillColor=#B8B8B8;" vertex="1" parent="1">
                    <mxGeometry x="530" y="315" width="120" height="60" as="geometry"/>
                </mxCell>
                <mxCell id="13" value="" style="ellipse;whiteSpace=wrap;html=1;aspect=fixed;fillColor=#787878;" vertex="1" parent="1">
                    <mxGeometry x="50" y="250" width="60" height="60" as="geometry"/>
                </mxCell>
                <mxCell id="14" style="edgeStyle=none;html=1;" edge="1" parent="1" source="20" target="10">
                    <mxGeometry relative="1" as="geometry">
                        <mxPoint x="240" y="155" as="targetPoint"/>
                        <Array as="points">
                            <mxPoint x="160" y="345"/>
                            <mxPoint x="160" y="155"/>
                            <mxPoint x="380" y="155"/>
                        </Array>
                    </mxGeometry>
                </mxCell>
                <mxCell id="15" value="Falhe" style="edgeLabel;html=1;align=center;verticalAlign=middle;resizable=0;points=[];" vertex="1" connectable="0" parent="14">
                    <mxGeometry x="-0.6992" y="-3" relative="1" as="geometry">
                        <mxPoint x="27" y="4" as="offset"/>
                    </mxGeometry>
                </mxCell>
                <mxCell id="16" style="edgeStyle=none;html=1;" edge="1" parent="1" source="20" target="21">
                    <mxGeometry relative="1" as="geometry">
                        <Array as="points">
                            <mxPoint x="430" y="345"/>
                        </Array>
                    </mxGeometry>
                </mxCell>
                <mxCell id="17" value="Esqueceu senha" style="edgeLabel;html=1;align=center;verticalAlign=middle;resizable=0;points=[];" vertex="1" connectable="0" parent="16">
                    <mxGeometry x="-0.5886" y="3" relative="1" as="geometry">
                        <mxPoint x="14" y="-7" as="offset"/>
                    </mxGeometry>
                </mxCell>
                <mxCell id="18" style="edgeStyle=none;html=1;" edge="1" parent="1" source="20" target="22">
                    <mxGeometry relative="1" as="geometry">
                        <Array as="points">
                            <mxPoint x="265" y="505"/>
                        </Array>
                    </mxGeometry>
                </mxCell>
                <mxCell id="19" value="Bem sucedido" style="edgeLabel;html=1;align=center;verticalAlign=middle;resizable=0;points=[];" vertex="1" connectable="0" parent="18">
                    <mxGeometry x="-0.6651" y="-4" relative="1" as="geometry">
                        <mxPoint as="offset"/>
                    </mxGeometry>
                </mxCell>
                <mxCell id="20" value="Digitar login e senha" style="rhombus;whiteSpace=wrap;html=1;fillColor=#8C8C8C;" vertex="1" parent="1">
                    <mxGeometry x="210" y="300" width="110" height="90" as="geometry"/>
                </mxCell>
                <mxCell id="21" value="RECUPERAR SENHA" style="rounded=0;whiteSpace=wrap;html=1;fillColor=#B8B8B8;" vertex="1" parent="1">
                    <mxGeometry x="365" y="375" width="120" height="60" as="geometry"/>
                </mxCell>
                <mxCell id="22" value="PAGINA INICIAL" style="rounded=0;whiteSpace=wrap;html=1;fillColor=#B8B8B8;" vertex="1" parent="1">
                    <mxGeometry x="365" y="475" width="120" height="60" as="geometry"/>
                </mxCell>
            </root>
        </mxGraphModel>
    </diagram>
</mxfile>